{
    "asset" : {
        "generator" : "Khronos glTF Blender I/O v1.4.40",
        "version" : "2.0"
    },
    "extensionsUsed" : [
        "KHR_lights_punctual"
    ],
    "extensionsRequired" : [
        "KHR_lights_punctual"
    ],
    "extensions" : {
        "KHR_lights_punctual" : {
            "lights" : [
                {
                    "color" : [
                        1,
                        1,
                        1
                    ],
                    "intensity" : 10,
                    "type" : "point",
                    "name" : "Point"
                }
            ]
        }
    },
    "scene" : 0,
    "scenes" : [
        {
            "name" : "Scene",
            "nodes" : [
                0,
                1,
                2,
                4,
                5
            ]
        }
    ],
    "nodes" : [
        {
            "mesh" : 0,
            "name" : "Plane",
            "rotation" : [
                0,
                0.9339162111282349,
                0,
                -0.35749202966690063
            ],
            "translation" : [
                -2.1702945232391357,
                0,
                5.19756555557251
            ]
        },
        {
            "mesh" : 1,
            "name" : "Torus",
            "rotation" : [
                0,
                0.9339162111282349,
                0,
                -0.35749202966690063
            ],
            "translation" : [
                -2.1702945232391357,
                0,
                5.19756555557251
            ]
        },
        {
            "mesh" : 2,
            "name" : "Plane.002",
            "rotation" : [
                0,
                0.9339162111282349,
                0,
                -0.35749202966690063
            ],
            "translation" : [
                -2.1702945232391357,
                0,
                5.19756555557251
            ]
        },
        {
            "extensions" : {
                "KHR_lights_punctual" : {
                    "light" : 0
                }
            },
            "name" : "Point_Orientation",
            "rotation" : [
                -0.7071067690849304,
                0,
                0,
                0.7071067690849304
            ]
        },
        {
            "children" : [
                3
            ],
            "name" : "Point",
            "rotation" : [
                0,
                0.9339162111282349,
                0,
                -0.35749202966690063
            ],
            "translation" : [
                -1.9550623893737793,
                3.1385128498077393,
                -5.515321254730225
            ]
        },
        {
            "mesh" : 3,
            "name" : "Plane.001",
            "rotation" : [
                0.25278472900390625,
                0.6603784561157227,
                0.660378634929657,
                -0.2527850270271301
            ],
            "translation" : [
                -8.847640991210938,
                10,
                -2.2464277744293213
            ]
        }
    ],
    "meshes" : [
        {
            "name" : "Plane",
            "primitives" : [
                {
                    "attributes" : {
                        "POSITION" : 0,
                        "NORMAL" : 1,
                        "TANGENT" : 2,
                        "TEXCOORD_0" : 3
                    },
                    "indices" : 4
                }
            ]
        },
        {
            "name" : "Torus",
            "primitives" : [
                {
                    "attributes" : {
                        "POSITION" : 5,
                        "NORMAL" : 6,
                        "TANGENT" : 7,
                        "TEXCOORD_0" : 8
                    },
                    "indices" : 9
                }
            ]
        },
        {
            "name" : "Plane.002",
            "primitives" : [
                {
                    "attributes" : {
                        "POSITION" : 10,
                        "NORMAL" : 11,
                        "TANGENT" : 12,
                        "TEXCOORD_0" : 13
                    },
                    "indices" : 4
                }
            ]
        },
        {
            "name" : "Plane.003",
            "primitives" : [
                {
                    "attributes" : {
                        "POSITION" : 14,
                        "NORMAL" : 15,
                        "TANGENT" : 16,
                        "TEXCOORD_0" : 17
                    },
                    "indices" : 4
                }
            ]
        }
    ],
    "accessors" : [
        {
            "bufferView" : 0,
            "componentType" : 5126,
            "count" : 4,
            "max" : [
                10,
                0,
                10
            ],
            "min" : [
                -10,
                0,
                -10
            ],
            "type" : "VEC3"
        },
        {
            "bufferView" : 1,
            "componentType" : 5126,
            "count" : 4,
            "type" : "VEC3"
        },
        {
            "bufferView" : 2,
            "componentType" : 5126,
            "count" : 4,
            "type" : "VEC4"
        },
        {
            "bufferView" : 3,
            "componentType" : 5126,
            "count" : 4,
            "type" : "VEC2"
        },
        {
            "bufferView" : 4,
            "componentType" : 5123,
            "count" : 6,
            "type" : "SCALAR"
        },
        {
            "bufferView" : 5,
            "componentType" : 5126,
            "count" : 2304,
            "max" : [
                -6.089383602142334,
                2.822880983352661,
                9.069327354431152
            ],
            "min" : [
                -8.589384078979492,
                2.322880506515503,
                6.569327354431152
            ],
            "type" : "VEC3"
        },
        {
            "bufferView" : 6,
            "componentType" : 5126,
            "count" : 2304,
            "type" : "VEC3"
        },
        {
            "bufferView" : 7,
            "componentType" : 5126,
            "count" : 2304,
            "type" : "VEC4"
        },
        {
            "bufferView" : 8,
            "componentType" : 5126,
            "count" : 2304,
            "type" : "VEC2"
        },
        {
            "bufferView" : 9,
            "componentType" : 5123,
            "count" : 3456,
            "type" : "SCALAR"
        },
        {
            "bufferView" : 10,
            "componentType" : 5126,
            "count" : 4,
            "max" : [
                -9.999999046325684,
                20,
                10
            ],
            "min" : [
                -10.000000953674316,
                0,
                -10
            ],
            "type" : "VEC3"
        },
        {
            "bufferView" : 11,
            "componentType" : 5126,
            "count" : 4,
            "type" : "VEC3"
        },
        {
            "bufferView" : 12,
            "componentType" : 5126,
            "count" : 4,
            "type" : "VEC4"
        },
        {
            "bufferView" : 13,
            "componentType" : 5126,
            "count" : 4,
            "type" : "VEC2"
        },
        {
            "bufferView" : 14,
            "componentType" : 5126,
            "count" : 4,
            "max" : [
                10,
                0,
                10
            ],
            "min" : [
                -10,
                0,
                -10
            ],
            "type" : "VEC3"
        },
        {
            "bufferView" : 15,
            "componentType" : 5126,
            "count" : 4,
            "type" : "VEC3"
        },
        {
            "bufferView" : 16,
            "componentType" : 5126,
            "count" : 4,
            "type" : "VEC4"
        },
        {
            "bufferView" : 17,
            "componentType" : 5126,
            "count" : 4,
            "type" : "VEC2"
        }
    ],
    "bufferViews" : [
        {
            "buffer" : 0,
            "byteLength" : 48,
            "byteOffset" : 0
        },
        {
            "buffer" : 0,
            "byteLength" : 48,
            "byteOffset" : 48
        },
        {
            "buffer" : 0,
            "byteLength" : 64,
            "byteOffset" : 96
        },
        {
            "buffer" : 0,
            "byteLength" : 32,
            "byteOffset" : 160
        },
        {
            "buffer" : 0,
            "byteLength" : 12,
            "byteOffset" : 192
        },
        {
            "buffer" : 0,
            "byteLength" : 27648,
            "byteOffset" : 204
        },
        {
            "buffer" : 0,
            "byteLength" : 27648,
            "byteOffset" : 27852
        },
        {
            "buffer" : 0,
            "byteLength" : 36864,
            "byteOffset" : 55500
        },
        {
            "buffer" : 0,
            "byteLength" : 18432,
            "byteOffset" : 92364
        },
        {
            "buffer" : 0,
            "byteLength" : 6912,
            "byteOffset" : 110796
        },
        {
            "buffer" : 0,
            "byteLength" : 48,
            "byteOffset" : 117708
        },
        {
            "buffer" : 0,
            "byteLength" : 48,
            "byteOffset" : 117756
        },
        {
            "buffer" : 0,
            "byteLength" : 64,
            "byteOffset" : 117804
        },
        {
            "buffer" : 0,
            "byteLength" : 32,
            "byteOffset" : 117868
        },
        {
            "buffer" : 0,
            "byteLength" : 48,
            "byteOffset" : 117900
        },
        {
            "buffer" : 0,
            "byteLength" : 48,
            "byteOffset" : 117948
        },
        {
            "buffer" : 0,
            "byteLength" : 64,
            "byteOffset" : 117996
        },
        {
            "buffer" : 0,
            "byteLength" : 32,
            "byteOffset" : 118060
        }
    ],
    "buffers" : [
        {
            "byteLength" : 118092,
            "uri" : "data:application/octet-stream;base64,"
        }
    ]
}
